<mxfile host="app.diagrams.net" modified="2024-04-12T03:07:29.717Z" agent="Mozilla/5.0 (Windows NT 10.0; Win64; x64) AppleWebKit/537.36 (KHTML, like Gecko) Chrome/109.0.0.0 Safari/537.36 SLBrowser/9.0.3.1311 SLBChan/33" etag="JDMs204sjsYSgEah3MtB" version="24.2.2" type="github">
  <diagram id="6a731a19-8d31-9384-78a2-239565b7b9f0" name="Page-1">
    <mxGraphModel dx="1290" dy="541" grid="1" gridSize="10" guides="1" tooltips="1" connect="1" arrows="1" fold="1" page="1" pageScale="1" pageWidth="1169" pageHeight="827" background="none" math="0" shadow="0">
      <root>
        <mxCell id="0" />
        <mxCell id="1" parent="0" />
        <mxCell id="ZEwApvpqsEBFfj1AW_El-66" style="edgeStyle=orthogonalEdgeStyle;rounded=0;orthogonalLoop=1;jettySize=auto;html=1;exitX=0.5;exitY=1;exitDx=0;exitDy=0;" edge="1" parent="1" source="ZEwApvpqsEBFfj1AW_El-55" target="ZEwApvpqsEBFfj1AW_El-59">
          <mxGeometry relative="1" as="geometry" />
        </mxCell>
        <mxCell id="ZEwApvpqsEBFfj1AW_El-55" value="9" style="ellipse;whiteSpace=wrap;html=1;aspect=fixed;" vertex="1" parent="1">
          <mxGeometry x="410" y="120" width="50" height="50" as="geometry" />
        </mxCell>
        <mxCell id="ZEwApvpqsEBFfj1AW_El-59" value="10" style="ellipse;whiteSpace=wrap;html=1;aspect=fixed;" vertex="1" parent="1">
          <mxGeometry x="410" y="220" width="50" height="50" as="geometry" />
        </mxCell>
        <mxCell id="ZEwApvpqsEBFfj1AW_El-60" value="13" style="ellipse;whiteSpace=wrap;html=1;aspect=fixed;" vertex="1" parent="1">
          <mxGeometry x="490" y="320" width="50" height="50" as="geometry" />
        </mxCell>
        <mxCell id="ZEwApvpqsEBFfj1AW_El-61" value="11" style="ellipse;whiteSpace=wrap;html=1;aspect=fixed;" vertex="1" parent="1">
          <mxGeometry x="350" y="320" width="50" height="50" as="geometry" />
        </mxCell>
        <mxCell id="ZEwApvpqsEBFfj1AW_El-62" value="19" style="ellipse;whiteSpace=wrap;html=1;aspect=fixed;" vertex="1" parent="1">
          <mxGeometry x="370" y="510" width="50" height="50" as="geometry" />
        </mxCell>
        <mxCell id="ZEwApvpqsEBFfj1AW_El-63" value="16" style="ellipse;whiteSpace=wrap;html=1;aspect=fixed;" vertex="1" parent="1">
          <mxGeometry x="540" y="414" width="50" height="50" as="geometry" />
        </mxCell>
        <mxCell id="ZEwApvpqsEBFfj1AW_El-64" value="14" style="ellipse;whiteSpace=wrap;html=1;aspect=fixed;" vertex="1" parent="1">
          <mxGeometry x="440" y="414" width="50" height="50" as="geometry" />
        </mxCell>
        <mxCell id="ZEwApvpqsEBFfj1AW_El-65" value="" style="endArrow=classic;html=1;rounded=0;entryX=0.8;entryY=0;entryDx=0;entryDy=0;entryPerimeter=0;exitX=0.368;exitY=1.028;exitDx=0;exitDy=0;exitPerimeter=0;" edge="1" parent="1" source="ZEwApvpqsEBFfj1AW_El-59" target="ZEwApvpqsEBFfj1AW_El-61">
          <mxGeometry width="50" height="50" relative="1" as="geometry">
            <mxPoint x="560" y="370" as="sourcePoint" />
            <mxPoint x="610" y="320" as="targetPoint" />
          </mxGeometry>
        </mxCell>
        <mxCell id="ZEwApvpqsEBFfj1AW_El-69" value="" style="endArrow=classic;html=1;rounded=0;exitX=1;exitY=1;exitDx=0;exitDy=0;entryX=0.5;entryY=0;entryDx=0;entryDy=0;" edge="1" parent="1" source="ZEwApvpqsEBFfj1AW_El-59" target="ZEwApvpqsEBFfj1AW_El-60">
          <mxGeometry width="50" height="50" relative="1" as="geometry">
            <mxPoint x="470" y="320" as="sourcePoint" />
            <mxPoint x="520" y="270" as="targetPoint" />
          </mxGeometry>
        </mxCell>
        <mxCell id="ZEwApvpqsEBFfj1AW_El-70" value="" style="endArrow=classic;html=1;rounded=0;exitX=1;exitY=1;exitDx=0;exitDy=0;entryX=0.312;entryY=0.028;entryDx=0;entryDy=0;entryPerimeter=0;" edge="1" parent="1" target="ZEwApvpqsEBFfj1AW_El-63">
          <mxGeometry width="50" height="50" relative="1" as="geometry">
            <mxPoint x="523" y="370" as="sourcePoint" />
            <mxPoint x="585" y="427" as="targetPoint" />
          </mxGeometry>
        </mxCell>
        <mxCell id="ZEwApvpqsEBFfj1AW_El-71" value="" style="endArrow=classic;html=1;rounded=0;entryX=0.5;entryY=0;entryDx=0;entryDy=0;exitX=0.336;exitY=1.06;exitDx=0;exitDy=0;exitPerimeter=0;" edge="1" parent="1" source="ZEwApvpqsEBFfj1AW_El-60" target="ZEwApvpqsEBFfj1AW_El-64">
          <mxGeometry width="50" height="50" relative="1" as="geometry">
            <mxPoint x="230" y="500" as="sourcePoint" />
            <mxPoint x="280" y="450" as="targetPoint" />
          </mxGeometry>
        </mxCell>
        <mxCell id="ZEwApvpqsEBFfj1AW_El-72" value="" style="endArrow=classic;html=1;rounded=0;entryX=0.5;entryY=0;entryDx=0;entryDy=0;exitX=0.5;exitY=1;exitDx=0;exitDy=0;" edge="1" parent="1" source="ZEwApvpqsEBFfj1AW_El-61" target="ZEwApvpqsEBFfj1AW_El-62">
          <mxGeometry width="50" height="50" relative="1" as="geometry">
            <mxPoint x="310" y="480" as="sourcePoint" />
            <mxPoint x="360" y="430" as="targetPoint" />
          </mxGeometry>
        </mxCell>
        <mxCell id="ZEwApvpqsEBFfj1AW_El-73" value="" style="endArrow=classic;html=1;rounded=0;exitX=0.5;exitY=1;exitDx=0;exitDy=0;entryX=1;entryY=0;entryDx=0;entryDy=0;" edge="1" parent="1" source="ZEwApvpqsEBFfj1AW_El-64" target="ZEwApvpqsEBFfj1AW_El-62">
          <mxGeometry width="50" height="50" relative="1" as="geometry">
            <mxPoint x="490" y="550" as="sourcePoint" />
            <mxPoint x="540" y="500" as="targetPoint" />
          </mxGeometry>
        </mxCell>
        <mxCell id="ZEwApvpqsEBFfj1AW_El-74" value="" style="endArrow=classic;html=1;rounded=0;exitX=0.5;exitY=1;exitDx=0;exitDy=0;entryX=1.04;entryY=0.22;entryDx=0;entryDy=0;entryPerimeter=0;" edge="1" parent="1" source="ZEwApvpqsEBFfj1AW_El-63" target="ZEwApvpqsEBFfj1AW_El-62">
          <mxGeometry width="50" height="50" relative="1" as="geometry">
            <mxPoint x="530" y="530" as="sourcePoint" />
            <mxPoint x="580" y="480" as="targetPoint" />
          </mxGeometry>
        </mxCell>
      </root>
    </mxGraphModel>
  </diagram>
</mxfile>
